<svg
  xmlns="http://www.w3.org/2000/svg"
  width="48"  
  height="48" 
  viewBox="0 0 24 24"
  fill="white"
>
  <path d="M12 .297C5.373.297 0 5.67 0 12.297c0 5.29 3.438 9.8 8.207 11.387.599.11.793-.26.793-.577v-2.044c-3.338.726-4.033-1.415-4.033-1.415-.546-1.387-1.333-1.756-1.333-1.756-1.089-.745.083-.729.083-.729 1.205.085 1.839 1.237 1.839 1.237 1.07 1.835 2.807 1.304 3.492.998.108-.774.419-1.305.762-1.605-2.665-.305-5.466-1.333-5.466-5.93 0-1.31.469-2.381 1.236-3.221-.123-.304-.536-1.527.117-3.176 0 0 1.008-.322 3.3 1.23.956-.266 1.982-.398 3.003-.403 1.021.005 2.047.137 3.003.403 2.291-1.552 3.299-1.23 3.299-1.23.653 1.649.24 2.872.118 3.176.768.84 1.236 1.911 1.236 3.221 0 4.609-2.803 5.624-5.475 5.921.43.371.815 1.102.815 2.222v3.293c0 .319.192.69.801.574C20.565 22.091 24 17.587 24 12.297 24 5.67 18.627.297 12 .297z" />
</svg>